<?xml version="1.0" standalone="no"?>
<!DOCTYPE svg PUBLIC "-//W3C//DTD SVG 20010904//EN"
 "http://www.w3.org/TR/2001/REC-SVG-20010904/DTD/svg10.dtd">
<svg version="1.0" xmlns="http://www.w3.org/2000/svg"
 width="207.000000pt" height="60.000000pt" viewBox="0 0 207.000000 60.000000"
 preserveAspectRatio="xMidYMid meet">

<g transform="translate(0.000000,60.000000) scale(0.100000,-0.100000)"
fill="#EE0033" stroke="none">
<path d="M238 537 c17 -20 3 -49 -33 -73 -14 -9 -25 -25 -25 -35 0 -13 -7 -19
-22 -19 -13 0 -40 -5 -60 -11 -34 -9 -38 -13 -38 -43 0 -19 7 -53 15 -76 20
-56 19 -67 -5 -73 -11 -3 -20 -12 -20 -21 0 -25 40 -44 118 -56 152 -24 330
36 236 79 -30 13 -26 21 19 36 21 7 35 20 42 39 8 25 6 31 -16 50 -14 11 -29
29 -32 38 -6 18 -66 38 -107 37 -15 -1 -5 -6 24 -12 27 -7 51 -17 53 -23 6
-18 -33 -24 -152 -24 -119 0 -158 6 -152 24 2 6 26 16 53 22 40 9 53 8 74 -5
24 -15 24 -15 11 2 -12 16 -12 21 8 45 48 60 51 97 10 111 -12 3 -12 2 -1 -12z
m-132 -205 c6 -4 14 -17 18 -29 3 -13 9 -32 12 -43 3 -11 1 -20 -5 -20 -14 0
-37 38 -45 73 -6 27 -1 33 20 19z m341 -29 c4 -12 -35 -58 -43 -50 -2 2 -1 18
2 36 7 32 32 41 41 14z m-229 -137 c37 -1 85 2 107 7 39 7 39 7 15 -7 -48 -29
-220 -17 -220 15 0 8 5 8 15 -1 9 -7 45 -13 83 -14z"/>
<path d="M290 472 c0 -11 -9 -27 -20 -37 -20 -18 -26 -46 -14 -58 10 -9 53 84
47 100 -7 18 -13 16 -13 -5z"/>
<path d="M762 407 c-27 -28 -17 -43 14 -22 19 12 24 12 34 0 6 -7 18 -11 26
-8 12 5 11 10 -7 29 -28 30 -40 30 -67 1z"/>
<path d="M582 413 c-13 -3 -27 -16 -33 -29 -15 -40 -11 -47 16 -30 43 28 47
22 39 -63 -8 -101 -1 -133 29 -129 21 3 22 7 19 93 -3 101 6 127 37 108 17
-11 22 -10 31 6 14 27 14 28 -21 40 -32 11 -73 12 -117 4z"/>
<path d="M915 410 c-4 -7 -3 -16 3 -22 14 -14 45 -2 40 15 -6 16 -34 21 -43 7z"/>
<path d="M1225 410 c-4 -7 -3 -16 3 -22 14 -14 45 -2 40 15 -6 16 -34 21 -43
7z"/>
<path d="M1364 401 c-70 -42 -72 -194 -5 -231 53 -28 121 3 121 55 l0 25 -20
-20 c-25 -25 -41 -25 -74 1 -23 18 -27 27 -24 67 2 35 9 49 30 65 26 19 29 20
46 4 26 -24 42 -21 42 8 0 18 -7 28 -26 35 -37 14 -55 12 -90 -9z"/>
<path d="M1723 393 c-10 -16 -23 -32 -30 -36 -18 -11 -16 -37 2 -37 12 0 15
-16 15 -81 0 -78 1 -80 23 -77 21 3 22 7 18 81 -3 65 -1 77 13 77 19 0 22 36
4 44 -10 5 -10 7 0 12 6 3 12 14 12 25 0 29 -37 24 -57 -8z"/>
<path d="M1981 403 c7 -12 15 -20 18 -17 3 2 -3 12 -13 22 -17 16 -18 16 -5
-5z"/>
<path d="M1005 363 c-10 -62 -7 -146 5 -178 8 -21 16 -25 48 -25 51 0 100 18
112 40 15 29 12 108 -6 146 -23 47 -50 64 -105 64 l-46 0 -8 -47z m104 -9 c38
-49 21 -154 -25 -154 -15 0 -34 31 -34 54 0 10 9 16 26 16 33 0 30 33 -4 38
-25 4 -31 39 -10 60 17 17 24 15 47 -14z"/>
<path d="M758 350 c-23 -14 -41 -75 -34 -113 8 -40 43 -77 73 -77 13 0 35 11
48 25 36 35 36 115 0 150 -25 26 -58 31 -87 15z m73 -56 c10 -28 -4 -72 -26
-80 -24 -9 -45 15 -45 52 0 60 50 80 71 28z"/>
<path d="M917 353 c-4 -3 -7 -49 -7 -100 0 -92 1 -94 23 -91 13 2 22 10 21 21
0 9 -1 53 -2 97 -2 59 -5 80 -15 80 -8 0 -17 -3 -20 -7z"/>
<path d="M1227 353 c-4 -3 -7 -46 -7 -95 0 -71 3 -90 16 -95 27 -10 31 9 26
105 -4 87 -13 108 -35 85z"/>
<path d="M1538 349 c-20 -11 -24 -34 -8 -44 6 -3 17 1 25 9 9 8 22 13 30 10
19 -8 20 -34 1 -34 -7 0 -25 -9 -40 -21 -28 -22 -36 -69 -13 -87 18 -15 74
-24 98 -17 20 7 21 12 17 81 -4 52 -10 80 -23 94 -19 22 -59 26 -87 9z m67
-120 c0 -15 -7 -25 -18 -27 -22 -4 -33 24 -17 43 18 21 35 13 35 -16z"/>
<path d="M1852 353 c-21 -8 -42 -59 -42 -101 0 -52 31 -92 71 -92 32 0 69 30
69 57 0 15 -1 15 -18 0 -23 -21 -56 -22 -72 -2 -10 12 -5 18 34 34 32 14 47
27 52 46 11 46 -42 79 -94 58z m58 -48 c0 -8 -11 -17 -25 -21 -31 -8 -38 -3
-29 20 8 20 54 22 54 1z"/>
<path d="M1976 338 c3 -4 11 -5 19 -1 21 7 19 12 -4 10 -11 0 -18 -5 -15 -9z"/>
</g>
</svg>
